<?xml version="1.0" encoding="UTF-8"?>
<svg id="Layer_1" xmlns="http://www.w3.org/2000/svg" version="1.1" viewBox="0 0 250 100">
  <!-- Generator: Adobe Illustrator 30.4.0, SVG Export Plug-In . SVG Version: 2.1.4 Build 226)  -->
  <defs>
    <style>
      .st0 {
        fill: #ffce00;
      }
    </style>
  </defs>
  <path d="M235.91,76.8c-3.72,1.72-7.66,1.61-11.37.53l-1.73-.67-1.68-.95-1.36-1.03c-1.64-1.23-2.91-2.78-3.81-4.63l-.62-1.29c-1.93-4.87-1.64-10.28,1.17-14.78l1.66-2.17c1.46-1.9,3.71-3.12,5.98-4.02s4.71-1.06,7.21-.95c4.02.18,7.75,1.78,10.53,4.78,2.02,2.19,3.67,5.26,3.68,8.34l.09,17.07c0,.34-.76.82-1.1.82l-3.53-.02c-.67,0-1.24-.68-1.34-1.27l-.36-2.1-3.42,2.34ZM239.85,62.48c0-5.43-4.4-9.83-9.83-9.83s-9.83,4.4-9.83,9.83,4.4,9.83,9.83,9.83,9.83-4.4,9.83-9.83Z"/>
  <path d="M156.35,76.7l-.36-2.24-3.27,2.34c-7.1,2.96-15.22.78-19.45-5.73-3.65-5.62-3.16-13.58,1.14-18.63,2.18-2.56,4.97-4.36,8.25-5.15,5.89-1.41,12.09.13,16.13,4.76,1.94,2.23,2.85,4.91,3.47,7.86l.02,16.67c0,.64-.46,1.26-1.09,1.27l-3.36.02c-.62,0-1.3-.55-1.5-1.17ZM154.7,68.09l1.06-2.13c1.99-4.01-.02-11.04-6.09-12.82-3.94-1.15-8.19.03-10.73,3.34-2.18,2.83-2.54,6.53-1.22,9.84,1.06,2.66,3.22,4.66,5.95,5.5,3.27,1.01,6.78.47,9.3-1.78.67-.6,1.35-1.16,1.74-1.94Z"/>
  <path d="M197.23,53.01c-2.78-.48-5.89.52-7.74,2.71-1.14,1.35-1.6,2.97-1.85,4.79v16.53c-.1.3-.61.82-.9.82h-4.01c-.29,0-.89-.23-1.19-.36v-16.8c0-3.14,1.02-6.11,2.96-8.58,4.8-6.13,14.74-6.99,20.65-1.82,2.99,2.6,4.6,6.39,4.61,10.39l.02,15.9c0,.63-.51,1.26-1.11,1.26h-3.78c-.98.01-1.29-.63-1.29-1.5v-16.58c-.51-3.58-2.88-6.15-6.37-6.75Z"/>
  <path d="M121,77.8c-.49,0-1.13-1.11-1.39-1.49l-.89-1.29-7.53-10.98h-8.77s-.57.49-.57.49l.02,12.52c-.18.34-.78.8-1.13.8h-4.29c-.45,0-.92-.49-.92-1.04v-39.71c0-.58.4-1.07.95-1.07l17.92.05c2.02,0,4.08.67,5.88,1.51,7.27,3.42,9.6,12.88,5.48,19.91l-.89,1.24c-1.62,2.26-3.79,3.61-6.65,4.5l2.77,3.93,1.71,2.43,4.8,6.87c.15.21.19.82.05.99s-.6.39-.83.39l-5.73-.07ZM117.44,43.31c-.41-.24-1.15-.54-1.55-.64l-1.87-.46h-11.36c-.4.04-.78.46-.79.87v14.27s.55.65.55.65l11.57-.04c2.67-.37,4.96-1.55,6.18-3.9,2.04-3.92.99-8.61-2.73-10.75Z"/>
  <path d="M174.49,77.83l-4.54.03c-.55,0-.99-.69-.99-1.21v-3.44s.02-24.31.02-24.31c0-.65.48-1.23,1.12-1.23l4-.02c.42,0,1.15.68,1.15,1.13v28.17c0,.26-.47.87-.76.87Z"/>
  <path class="st0" d="M170.44,43.37c-1.03-.49-1.94-1.65-2.08-2.6-.31-2.03.62-3.66,2.33-4.4,1.55-.68,3.48-.14,4.53,1.29s1.07,3.32-.2,4.86c-.98,1.2-2.99,1.59-4.57.84Z"/>
  <path d="M65.62,81.66l-1.93-2.05-1.93-2.1-9.14-9.86c-.72-.77-1.16-2.07-1.28-3.05-.41-3.34,1.78-6.08,4.97-6.66,1.67-.3,3.27-.8,4.75-1.54l1.25-.61c7.01-3.46,12-11.93,11.27-19.75-.7-7.43-5.81-13.84-12.99-15.71-1.15-.3-2.27-.67-3.49-.67H22.76c-7.26.85-13.35,4.96-16.49,11.49l-.48.33c-.14.1-.45-.35-.45-.54v-5.65c0-1.72,0-3.44.42-5.06.47-1.82,1.1-3.6,2.08-5.16,3.3-5.27,9.57-8.92,15.48-8.94l35.54-.12,2.19.26c8.95,1.08,17.83,7.11,22.13,14.99l.65,1.19c3.76,6.89,4.47,16.08,2.4,23.71-2.22,8.15-7.08,14.76-14.1,19.4l-2.69,1.78c-.98.65-1.31,2.34-.39,3.09.42.34.66.84.97,1.27l14.62,15.71c1.19,1.28,1.81,2.69,1.56,4.52s-1.58,3.27-3.39,3.76c-1.55.42-3.29.2-4.71-.81-1-.71-1.89-1.8-2.78-2.76l-4.79-5.15-.88-.95-4.04-4.35Z"/>
  <path d="M49.32,95.45c-3.61.11-6.85-1.21-9.22-3.73l-2.96-3.14-3.52-3.73-3.55-3.77-6.44-6.69c-.51-.53-.79-.82-1.29-1.38l-2.49-2.74-.8-.85-6.61-6.93-.8-.82-2.25-2.42c-2.01-2.17-2.39-5.29-1.4-8.04,1.54-4.26,6.24-6.73,10.7-5.42,1.63.48,3,1.43,4.15,2.64l8.88,9.34.79.83,5.9,6.25.78.81,1.76,1.9,6.97,7.4,5.39,5.75.78.84,4.5,4.82,3.6,3.86,4.02,4.31c.1.11.26.36.31.48.06.15-.37.36-.57.44h-16.65Z"/>
  <path class="st0" d="M55.97,42.09c-5.87.92-10.07,6.6-10.47,12.9-.01.18-.32.69-.43.57l-.48-.53c-.15-3.68-1.45-6.98-3.99-9.59-2.55-2.35-5.73-3.57-9.2-3.76l-.52-.17c-.09-.03-.08-.07-.2-.52l1.31-.29c7.3-.77,12.2-5.84,12.63-13.2.01-.2.3-.59.47-.57.6.05.4,2.06,1.2,4.5,1.86,5.69,6.5,8.8,12.46,9.32.22.02.54.23.54.4s-.33.45-.5.48l-2.8.44Z"/>
</svg>